<svg width="27" height="27" viewBox="0 0 27 27" fill="none" xmlns="http://www.w3.org/2000/svg">
<g clip-path="url(#clip0_3_565)">
<path d="M19.6364 14.7273C19.6364 14.4262 19.8807 14.1818 20.1818 14.1818H21.2727C21.5738 14.1818 21.8182 14.4262 21.8182 14.7273C21.8182 15.0284 21.5738 15.2727 21.2727 15.2727H20.1818C19.8807 15.2727 19.6364 15.0284 19.6364 14.7273ZM20.1818 19.6364H21.2727C21.5738 19.6364 21.8182 19.392 21.8182 19.0909C21.8182 18.7898 21.5738 18.5455 21.2727 18.5455H20.1818C19.8807 18.5455 19.6364 18.7898 19.6364 19.0909C19.6364 19.392 19.8807 19.6364 20.1818 19.6364ZM15.8182 6.54545H16.9091C17.2102 6.54545 17.4545 6.30109 17.4545 6C17.4545 5.69891 17.2102 5.45455 16.9091 5.45455H15.8182C15.5171 5.45455 15.2727 5.69891 15.2727 6C15.2727 6.30109 15.5171 6.54545 15.8182 6.54545ZM20.1818 6.54545H21.2727C21.5738 6.54545 21.8182 6.30109 21.8182 6C21.8182 5.69891 21.5738 5.45455 21.2727 5.45455H20.1818C19.8807 5.45455 19.6364 5.69891 19.6364 6C19.6364 6.30109 19.8807 6.54545 20.1818 6.54545ZM20.1818 10.9091H21.2727C21.5738 10.9091 21.8182 10.6647 21.8182 10.3636C21.8182 10.0625 21.5738 9.81818 21.2727 9.81818H20.1818C19.8807 9.81818 19.6364 10.0625 19.6364 10.3636C19.6364 10.6647 19.8807 10.9091 20.1818 10.9091ZM16.9091 9.81818H15.8182C15.5171 9.81818 15.2727 10.0625 15.2727 10.3636C15.2727 10.6647 15.5171 10.9091 15.8182 10.9091H16.9091C17.2102 10.9091 17.4545 10.6647 17.4545 10.3636C17.4545 10.0625 17.2102 9.81818 16.9091 9.81818ZM21.2727 0H15.8182C13.1116 0 10.9091 2.20255 10.9091 4.90909V8.18182C10.9091 8.48291 11.1535 8.72727 11.4545 8.72727C11.7556 8.72727 12 8.48291 12 8.18182V4.90909C12 2.80364 13.7127 1.09091 15.8182 1.09091H21.2727C23.3782 1.09091 25.0909 2.80364 25.0909 4.90909V21.2727C25.0909 23.3782 23.3782 25.0909 21.2727 25.0909H18C17.6989 25.0909 17.4545 25.3353 17.4545 25.6364C17.4545 25.9375 17.6989 26.1818 18 26.1818H21.2727C23.9793 26.1818 26.1818 23.9793 26.1818 21.2727V4.90909C26.1818 2.20255 23.9793 0 21.2727 0ZM16.3636 17.2887V21.8182C16.3636 24.2247 14.4065 26.1818 12 26.1818H4.36364C1.95709 26.1818 0 24.2247 0 21.8182V17.2887C0 15.7691 0.687273 14.3596 1.884 13.4225L5.15673 10.8611C6.93818 9.468 9.42764 9.468 11.2069 10.8611L14.4807 13.4225C15.6775 14.3596 16.3647 15.7691 16.3647 17.2887H16.3636ZM15.2727 17.2887C15.2727 16.1073 14.7393 15.0109 13.8065 14.2811L10.5338 11.7196C9.84109 11.1785 9.01091 10.9069 8.18182 10.9069C7.35273 10.9069 6.52255 11.1785 5.82873 11.7196L2.55709 14.2811C1.62545 15.0109 1.09091 16.1073 1.09091 17.2887V21.8182C1.09091 23.6225 2.55927 25.0909 4.36364 25.0909H12C13.8044 25.0909 15.2727 23.6225 15.2727 21.8182V17.2887ZM10.9091 18V20.1818C10.9091 21.084 10.1749 21.8182 9.27273 21.8182H7.09091C6.18873 21.8182 5.45455 21.084 5.45455 20.1818V18C5.45455 17.0978 6.18873 16.3636 7.09091 16.3636H9.27273C10.1749 16.3636 10.9091 17.0978 10.9091 18ZM9.81818 18C9.81818 17.7 9.57273 17.4545 9.27273 17.4545H7.09091C6.79091 17.4545 6.54545 17.7 6.54545 18V20.1818C6.54545 20.4818 6.79091 20.7273 7.09091 20.7273H9.27273C9.57273 20.7273 9.81818 20.4818 9.81818 20.1818V18Z" fill="#072768"/>
</g>
<defs>
<clipPath id="clip0_3_565">
<rect width="26.1818" height="26.1818" fill="white"/>
</clipPath>
</defs>
</svg>
