<svg width="27" height="27" viewBox="0 0 27 27" fill="none" xmlns="http://www.w3.org/2000/svg">
<g clip-path="url(#clip0_3_627)">
<path d="M22.9091 9.81818H3.27273C1.47273 9.81818 0 11.2909 0 13.0909C0 14.8909 1.47273 16.3636 3.27273 16.3636H22.9091C24.7091 16.3636 26.1818 14.8909 26.1818 13.0909C26.1818 11.2909 24.7091 9.81818 22.9091 9.81818ZM22.9091 15.2727H3.27273C2.07273 15.2727 1.09091 14.2909 1.09091 13.0909C1.09091 11.8909 2.07273 10.9091 3.27273 10.9091H22.9091C24.1091 10.9091 25.0909 11.8909 25.0909 13.0909C25.0909 14.2909 24.1091 15.2727 22.9091 15.2727ZM3.27273 6.54545H16.3636C18.1636 6.54545 19.6364 5.07273 19.6364 3.27273C19.6364 1.47273 18.1636 0 16.3636 0H3.27273C1.47273 0 0 1.47273 0 3.27273C0 5.07273 1.47273 6.54545 3.27273 6.54545ZM3.27273 1.09091H16.3636C17.5636 1.09091 18.5455 2.07273 18.5455 3.27273C18.5455 4.47273 17.5636 5.45455 16.3636 5.45455H3.27273C2.07273 5.45455 1.09091 4.47273 1.09091 3.27273C1.09091 2.07273 2.07273 1.09091 3.27273 1.09091ZM9.81818 19.6364H3.27273C1.47273 19.6364 0 21.1091 0 22.9091C0 24.7091 1.47273 26.1818 3.27273 26.1818H9.81818C11.6182 26.1818 13.0909 24.7091 13.0909 22.9091C13.0909 21.1091 11.6182 19.6364 9.81818 19.6364ZM9.81818 25.0909H3.27273C2.07273 25.0909 1.09091 24.1091 1.09091 22.9091C1.09091 21.7091 2.07273 20.7273 3.27273 20.7273H9.81818C11.0182 20.7273 12 21.7091 12 22.9091C12 24.1091 11.0182 25.0909 9.81818 25.0909Z" fill="#351303"/>
</g>
<defs>
<clipPath id="clip0_3_627">
<rect width="26.1818" height="26.1818" fill="white"/>
</clipPath>
</defs>
</svg>
