<svg width="27" height="27" viewBox="0 0 27 27" fill="none" xmlns="http://www.w3.org/2000/svg">
<g clip-path="url(#clip0_3_645)">
<path d="M17.455 13.6363V14.1818H16.3641V13.6363C16.3641 12.7342 15.6299 12 14.7277 12H11.455C10.5528 12 9.81862 12.7342 9.81862 13.6363C9.81862 14.592 10.5026 15.3949 11.4474 15.5465L14.9088 16.1029C16.3848 16.3396 17.455 17.5963 17.455 19.0909C17.455 20.5942 16.231 21.8182 14.7277 21.8182H13.6368V24H12.5459V21.8182H11.455C9.95172 21.8182 8.72772 20.5942 8.72772 19.0909V18.5454H9.81862V19.0909C9.81862 19.9931 10.5528 20.7272 11.455 20.7272H14.7277C15.6299 20.7272 16.3641 19.9931 16.3641 19.0909C16.3641 18.1352 15.6801 17.3323 14.7354 17.1807L11.2739 16.6243C9.7979 16.3876 8.72772 15.1309 8.72772 13.6363C8.72772 12.1331 9.95172 10.9091 11.455 10.9091H12.5459V8.72724H13.6368V10.9091H14.7277C16.231 10.9091 17.455 12.1331 17.455 13.6363ZM25.063 19.9091C25.063 23.3672 22.2484 26.1818 18.7903 26.1818H7.33572C3.87753 26.1818 1.06299 23.3672 1.06299 19.9091C1.06299 14.2287 5.77899 7.08433 11.2281 5.7087C9.6899 4.80215 7.63681 3.11452 7.63681 0.545424V-3.05176e-05H18.5459V0.545424C18.5459 3.11779 16.4666 4.80652 14.911 5.71197C20.3535 7.09524 25.063 14.2331 25.063 19.9091ZM13.0641 5.41306C13.867 5.08033 17.0055 3.62397 17.4114 1.09088H8.77026C9.17062 3.62288 12.2688 5.07815 13.0641 5.41306ZM23.9721 19.9091C23.9721 14.1011 18.6812 6.61415 13.0914 6.54542C7.50153 6.61524 2.1539 14.1011 2.1539 19.9091C2.1539 22.7662 4.47862 25.0909 7.33572 25.0909H18.7903C21.6474 25.0909 23.9721 22.7662 23.9721 19.9091Z" fill="#6B4D38"/>
</g>
<defs>
<clipPath id="clip0_3_645">
<rect width="26.1818" height="26.1818" fill="white"/>
</clipPath>
</defs>
</svg>
