<svg width="40" height="40" viewBox="0 0 40 40" fill="none" xmlns="http://www.w3.org/2000/svg">
<path d="M19.2952 29.2479H20.7052V24.1263H25.8335V22.7158H20.7052V17.5875H19.2952V22.7158H14.1668V24.1263H19.2952V29.2479ZM10.7693 35C10.0866 35 9.50989 34.7647 9.03933 34.2942C8.56877 33.8236 8.3335 33.2469 8.3335 32.5642V7.43583C8.3335 6.75306 8.56877 6.17639 9.03933 5.70583C9.50989 5.23528 10.0866 5 10.7693 5H24.4297L31.6668 12.2371V32.5642C31.6668 33.2469 31.4316 33.8236 30.961 34.2942C30.4904 34.7647 29.9138 35 29.231 35H10.7693ZM23.7243 12.9017V6.41042H10.7693C10.5129 6.41042 10.2779 6.51722 10.0643 6.73083C9.85072 6.94444 9.74391 7.17945 9.74391 7.43583V32.5642C9.74391 32.8206 9.85072 33.0556 10.0643 33.2692C10.2779 33.4828 10.5129 33.5896 10.7693 33.5896H29.231C29.4874 33.5896 29.7224 33.4828 29.936 33.2692C30.1496 33.0556 30.2564 32.8206 30.2564 32.5642V12.9017H23.7243Z" fill="white"/>
</svg>
