<svg width="24" height="24" viewBox="0 0 24 24" fill="none" xmlns="http://www.w3.org/2000/svg">
<path d="M21.5 0H2.5C1.121 0 0 1.122 0 2.5V11H24V2.5C24 1.122 22.879 0 21.5 0ZM23 10H1V2.5C1 1.673 1.673 1 2.5 1H21.5C22.327 1 23 1.673 23 2.5V10ZM3 6H21V7H3V6ZM7 13H8V20.5C8 22.43 6.43 24 4.5 24C2.57 24 1 22.43 1 20.5C1 18.57 2.57 17 4.5 17V18C3.121 18 2 19.122 2 20.5C2 21.878 3.121 23 4.5 23C5.879 23 7 21.878 7 20.5V13ZM23 20.5C23 22.43 21.43 24 19.5 24C17.57 24 16 22.43 16 20.5V13H17V20.5C17 21.878 18.121 23 19.5 23C20.879 23 22 21.878 22 20.5C22 19.122 20.879 18 19.5 18V17C21.43 17 23 18.57 23 20.5ZM11.5 13H12.5V24H11.5V13Z" fill="#072768"/>
</svg>
