<svg width="24" height="24" viewBox="0 0 24 24" fill="none" xmlns="http://www.w3.org/2000/svg">
<g clip-path="url(#clip0_3_816)">
<path d="M11.737 24C11.492 24 11.243 23.946 11.002 23.835C10.216 23.472 9.83401 22.637 10.072 21.805L11.827 16H6.50101C5.70201 16 4.97001 15.632 4.49401 14.99C4.01801 14.348 3.87701 13.541 4.10801 12.776L7.13001 1.788C7.45501 0.714 8.41702 0 9.52601 0H13.899C14.587 0 15.232 0.338 15.624 0.903C16.016 1.468 16.106 2.191 15.865 2.835L13.705 9H17.5C18.442 9 19.268 9.497 19.709 10.33C20.15 11.163 20.098 12.124 19.569 12.904L13.159 23.216C12.82 23.725 12.291 24 11.737 24ZM9.52702 1C8.86102 1 8.28401 1.428 8.09101 2.066L5.06901 13.054C4.92701 13.525 5.01101 14.009 5.29701 14.394C5.58301 14.779 6.02201 15 6.50201 15H12.501C12.659 15 12.808 15.075 12.902 15.202C12.996 15.329 13.025 15.493 12.979 15.644L11.032 22.086C10.91 22.514 11.153 22.802 11.423 22.926C11.692 23.05 12.069 23.05 12.319 22.673L18.731 12.358C19.059 11.874 19.091 11.297 18.826 10.797C18.561 10.297 18.066 9.999 17.5 9.999H13C12.838 9.999 12.686 9.92 12.592 9.788C12.498 9.656 12.474 9.487 12.528 9.333L14.925 2.493C15.057 2.14 15.011 1.772 14.802 1.472C14.594 1.171 14.264 0.999 13.899 0.999H9.52601L9.52702 1Z" fill="#072768"/>
</g>
<defs>
<clipPath id="clip0_3_816">
<rect width="24" height="24" fill="white"/>
</clipPath>
</defs>
</svg>
