<svg xmlns="http://www.w3.org/2000/svg" version="1.1" xmlns:xlink="http://www.w3.org/1999/xlink" width="512" height="512" x="0" y="0" viewBox="0 0 48 48" style="enable-background:new 0 0 512 512" xml:space="preserve" class=""><g><path d="M6.2 47.5c-1.1 0-2-.9-2-2V6c0-1.1.9-2 2-2s2 .9 2 2v39.5c-.1 1.1-.9 2-2 2z" fill="#000000" opacity="1" data-original="#000000"></path><path d="M13.7 33.2c-3.3 0-6.1-1.1-8.8-3.5-.4-.4-.7-.9-.7-1.5V5.5c0-.8.5-1.5 1.2-1.8s1.5-.2 2.1.3c2 1.7 3.9 2.5 6.2 2.5 3 0 6.2-1.4 9.5-2.9C26.8 2 30.4.4 34.3.4c3.3 0 6.1 1.1 8.8 3.5.4.4.7.9.7 1.5v22.7c0 .8-.5 1.5-1.2 1.8s-1.5.2-2.1-.3c-2-1.7-3.9-2.5-6.2-2.5-3 0-6.2 1.4-9.5 2.9-3.6 1.5-7.3 3.1-11.1 3.2zm-5.6-5.9c1.7 1.3 3.5 2 5.6 2 3 0 6.2-1.4 9.5-2.9 3.6-1.6 7.2-3.2 11.1-3.2 2 0 3.8.4 5.6 1.3V6.4c-1.7-1.3-3.5-2-5.6-2-3 0-6.2 1.4-9.5 2.9-3.6 1.6-7.2 3.2-11.1 3.2-2 0-3.8-.4-5.6-1.3z" fill="#072768" opacity="1" data-original="#072768"></path></g></svg>