<svg width="24" height="24" viewBox="0 0 24 24" fill="none" xmlns="http://www.w3.org/2000/svg">
<g clip-path="url(#clip0_4_228)">
<path d="M20.5 18L18.732 19.729C18.26 20.201 18 20.829 18 21.497C18 22.165 18.26 22.792 18.732 23.265C19.204 23.738 19.832 23.997 20.5 23.997C21.168 23.997 21.796 23.737 22.268 23.265C22.74 22.792 23 22.164 23 21.497C23 20.83 22.74 20.201 22.264 19.726L20.5 18ZM21.561 22.558C20.996 23.123 20.007 23.125 19.44 22.558C19.157 22.275 19.001 21.898 19.001 21.497C19.001 21.096 19.157 20.72 19.437 20.44L20.501 19.398L21.562 20.436C21.846 20.719 22.001 21.095 22.001 21.497C22.001 21.899 21.844 22.274 21.561 22.558ZM15.5 5H11V1H17V0H4V1H10V5H0V6H10V11H0V12H15.5C16.327 12 17 12.673 17 13.5V16H24V13.5C24 8.813 20.187 5 15.5 5ZM23 15H18V13.5C18 12.121 16.878 11 15.5 11H11V6H15.5C19.636 6 23 9.364 23 13.5V15Z" fill="#072768"/>
</g>
<defs>
<clipPath id="clip0_4_228">
<rect width="24" height="24" fill="white"/>
</clipPath>
</defs>
</svg>
