<svg width="28" height="28" viewBox="0 0 32 32" fill="none" xmlns="http://www.w3.org/2000/svg">
<path d="M17.6847 25.5364C16.0402 27.1001 14.1075 27.862 11.8868 27.8222C9.66588 27.7823 7.78206 26.9489 6.23532 25.3221C4.67877 23.685 3.9322 21.7529 3.99564 19.5259C4.05891 17.2987 4.91391 15.4022 6.56064 13.8365L16.1353 4.7331C17.2704 3.65388 18.6077 3.1282 20.1472 3.15608C21.6867 3.18431 22.9936 3.76335 24.0678 4.89318C25.1422 6.02319 25.6579 7.36103 25.6148 8.90671C25.5716 10.4525 24.9824 11.7651 23.8473 12.8443L14.7743 21.4707C14.1473 22.0669 13.4049 22.361 12.5473 22.353C11.6897 22.345 10.9599 22.0244 10.3578 21.3912C9.77263 20.7757 9.48823 20.0312 9.50461 19.1577C9.52082 18.284 9.84408 17.5475 10.4744 16.9482L19.5055 8.3616L20.3802 9.28153L11.3491 17.8682C10.9724 18.2263 10.7762 18.6625 10.7604 19.1767C10.7447 19.691 10.9142 20.1346 11.2687 20.5075C11.627 20.8844 12.0609 21.0753 12.5704 21.0804C13.0801 21.0857 13.5232 20.9092 13.8999 20.5511L22.9938 11.9047C23.863 11.0756 24.3157 10.066 24.3519 8.87591C24.388 7.68602 23.9884 6.6519 23.1533 5.77354C22.3182 4.89519 21.3046 4.44708 20.1127 4.4292C18.9208 4.41169 17.8865 4.81963 17.01 5.65303L7.4353 14.7565C6.04446 16.0761 5.32213 17.6763 5.26831 19.5572C5.21485 21.4381 5.84452 23.0689 7.15733 24.4496C8.46342 25.8233 10.0553 26.5243 11.9329 26.5526C13.8105 26.5809 15.4363 25.9356 16.8103 24.6168L26.3431 15.5531L27.2175 16.4728L17.6847 25.5364Z" fill="black"/>
</svg>
