<svg width="32" height="32" viewBox="0 0 40 40" fill="none" xmlns="http://www.w3.org/2000/svg">
<path d="M29.5813 31.7308H30.7759V27.4358H35.0705V26.2417H30.7759V21.9467H29.5813V26.2417H25.2863V27.4358H29.5813V31.7308ZM30.165 33.3333C28.36 33.3333 26.8253 32.7 25.5609 31.4333C24.2967 30.1667 23.6646 28.634 23.6646 26.8354C23.6646 25.016 24.2967 23.4724 25.5609 22.2046C26.825 20.9371 28.3645 20.3033 30.1792 20.3033C31.975 20.3033 33.5063 20.9371 34.773 22.2046C36.0396 23.4724 36.673 25.016 36.673 26.8354C36.673 28.634 36.0396 30.1667 34.773 31.4333C33.5063 32.7 31.9703 33.3333 30.165 33.3333ZM8.33337 30V12.5L20 3.68584L31.6667 12.5V16.0792C31.4453 16.0236 31.2148 15.9883 30.975 15.9733C30.7353 15.9583 30.4957 15.9488 30.2563 15.9446V13.205L20 5.43792L9.74379 13.1979V28.5896H19.4434C19.4712 28.8285 19.52 29.0697 19.59 29.3133C19.66 29.5572 19.7366 29.7861 19.8196 30H8.33337Z" fill="white"/>
</svg>
