<svg width="36" height="36" viewBox="0 0 40 40" fill="none" xmlns="http://www.w3.org/2000/svg">
<path d="M19.6154 31.6667C19.2501 31.6667 18.9451 31.5443 18.7004 31.2996C18.4557 31.0549 18.3333 30.7499 18.3333 30.3846V21.0896L9.25206 9.59624C9.03206 9.33847 9.00276 9.06347 9.16415 8.77125C9.32526 8.4793 9.5604 8.33333 9.86956 8.33333H30.1304C30.4396 8.33333 30.6747 8.4793 30.8358 8.77125C30.9972 9.06347 30.9679 9.33847 30.7479 9.59624L21.6666 21.0896V30.3846C21.6666 30.7499 21.5443 31.0549 21.2996 31.2996C21.0548 31.5443 20.7498 31.6667 20.3846 31.6667H19.6154ZM20 20.9187L28.7971 9.74374H11.2029L20 20.9187Z" fill="white"/>
</svg>
