<svg width="36" height="36" viewBox="0 0 36 36" fill="none" xmlns="http://www.w3.org/2000/svg">
<path fill-rule="evenodd" clip-rule="evenodd" d="M28.6694 8.14746C30.4803 8.14746 31.9499 9.61553 31.9499 11.428C31.9499 13.239 30.4803 14.7071 28.6694 14.7071C26.8584 14.7071 25.3889 13.239 25.3889 11.428C25.3889 9.61553 26.8584 8.14746 28.6694 8.14746Z" fill="#FF1212" stroke="#FF1212" stroke-width="2.25" stroke-linecap="round" stroke-linejoin="round"/>
<path d="M31.3704 20.0877C31.2318 22.9145 30.2058 25.7018 28.3029 27.9519C25.6309 31.1114 21.8805 32.6787 18.1329 32.667C16.821 32.6612 10.975 32.6655 7.52371 32.667C6.49927 32.667 5.89219 31.5243 6.46279 30.6707C6.78238 30.1935 7.19098 29.6112 7.51202 29.1573C7.83454 28.7036 7.86373 28.1067 7.585 27.6251C7.09466 26.7743 6.365 25.4828 6.1753 25.013C3.91045 20.1155 4.78457 14.1279 8.82541 10.0871C12.2358 6.67668 17.053 5.5209 21.4179 6.61684" stroke="white" stroke-width="1.5" stroke-linecap="round" stroke-linejoin="round"/>
<path d="M22.6656 19.8456V19.9503M23.0898 19.8681C23.0898 20.1039 22.8987 20.2948 22.6629 20.2948C22.4273 20.2948 22.2363 20.1039 22.2363 19.8681C22.2363 19.6324 22.4273 19.4413 22.6629 19.4413C22.8987 19.4413 23.0898 19.6324 23.0898 19.8681Z" stroke="white" stroke-width="1.5" stroke-linecap="round" stroke-linejoin="round"/>
<path d="M14.2429 19.8456V19.9503M14.6672 19.8681C14.6672 20.1039 14.476 20.2948 14.2403 20.2948C14.0046 20.2948 13.8137 20.1039 13.8137 19.8681C13.8137 19.6324 14.0046 19.4413 14.2403 19.4413C14.476 19.4413 14.6672 19.6324 14.6672 19.8681Z" stroke="white" stroke-width="1.5" stroke-linecap="round" stroke-linejoin="round"/>
</svg>
