<svg width="36" height="36" viewBox="0 0 36 36" fill="none" xmlns="http://www.w3.org/2000/svg">
<path d="M12.5768 18.1155H23.4233V16.9616H12.5768V18.1155ZM12.5768 22.2694H23.4233V21.1155H12.5768V22.2694ZM12.5768 26.4233H18.9233V25.2694H12.5768V26.4233ZM9.57675 31.5C9.0005 31.5 8.51025 31.298 8.106 30.894C7.702 30.4897 7.5 29.9995 7.5 29.4233V6.57675C7.5 6.0005 7.702 5.51025 8.106 5.106C8.51025 4.702 9.0005 4.5 9.57675 4.5H22.1048L28.5 10.8952V29.4233C28.5 29.9995 28.298 30.4897 27.894 30.894C27.4898 31.298 26.9995 31.5 26.4233 31.5H9.57675ZM21.528 11.4173V5.65388H9.57675C9.346 5.65388 9.1345 5.75 8.94225 5.94225C8.75 6.1345 8.65388 6.346 8.65388 6.57675V29.4233C8.65388 29.654 8.75 29.8655 8.94225 30.0578C9.1345 30.25 9.346 30.3461 9.57675 30.3461H26.4233C26.654 30.3461 26.8655 30.25 27.0578 30.0578C27.25 29.8655 27.3461 29.654 27.3461 29.4233V11.4173H21.528Z" fill="white"/>
</svg>
