<svg width="40" height="40" viewBox="0 0 40 40" fill="none" xmlns="http://www.w3.org/2000/svg">
<path d="M19.42 27.5H20.7021V18.3333H19.42V27.5ZM20.6267 15.8363C20.805 15.6715 20.8942 15.459 20.8942 15.1988C20.8942 14.9363 20.8079 14.72 20.6354 14.55C20.4629 14.38 20.2514 14.295 20.0008 14.295C19.7289 14.295 19.5117 14.38 19.3492 14.55C19.1869 14.72 19.1058 14.9363 19.1058 15.1988C19.1058 15.459 19.1947 15.6715 19.3725 15.8363C19.5506 16.001 19.7594 16.0833 19.9992 16.0833C20.2392 16.0833 20.4483 16.001 20.6267 15.8363ZM20.0167 35C17.9283 35 15.9799 34.6064 14.1712 33.8192C12.3624 33.0319 10.7756 31.9567 9.41083 30.5933C8.04611 29.23 6.96986 27.6438 6.18208 25.8346C5.39403 24.0251 5 22.0751 5 19.9846C5 17.9154 5.39361 15.97 6.18083 14.1483C6.96806 12.3269 8.04333 10.7408 9.40667 9.39C10.77 8.03917 12.3563 6.96986 14.1654 6.18208C15.9749 5.39403 17.9249 5 20.0154 5C22.0846 5 24.03 5.39361 25.8517 6.18083C27.6731 6.96806 29.2592 8.03639 30.61 9.38583C31.9608 10.7353 33.0301 12.3222 33.8179 14.1467C34.606 15.9708 35 17.9164 35 19.9833C35 22.0717 34.6064 24.0201 33.8192 25.8288C33.0319 27.6376 31.9636 29.2219 30.6142 30.5817C29.2647 31.9411 27.6778 33.0174 25.8533 33.8104C24.0292 34.6035 22.0836 35 20.0167 35ZM20.0208 33.7179C23.8231 33.7179 27.0565 32.384 29.7213 29.7163C32.3857 27.0485 33.7179 23.8028 33.7179 19.9792C33.7179 16.1769 32.3883 12.9435 29.7292 10.2788C27.0697 7.61431 23.8267 6.28208 20 6.28208C16.1903 6.28208 12.9515 7.61167 10.2838 10.2708C7.61597 12.9303 6.28208 16.1733 6.28208 20C6.28208 23.8097 7.61597 27.0485 10.2838 29.7163C12.9515 32.384 16.1972 33.7179 20.0208 33.7179Z" fill="white"/>
</svg>
