<svg width="40" height="40" viewBox="0 0 40 40" fill="none" xmlns="http://www.w3.org/2000/svg">
<path d="M13.8463 29.4871H15.2404V21.1538H20.3204L21.9871 24.4871H29.4871V15.5129H24.6796L23.0129 12.1796H13.8463V29.4871ZM22.8879 23.0929L21.2213 19.7596H15.2404V13.5417H22.1121L23.7788 16.875H28.125V23.0929H22.8879ZM20.0054 35C17.9376 35 15.9961 34.6064 14.1808 33.8192C12.3656 33.0319 10.7756 31.9567 9.41083 30.5933C8.04611 29.23 6.96986 27.6415 6.18208 25.8279C5.39403 24.0143 5 22.0735 5 20.0054C5 17.9313 5.39361 15.9811 6.18083 14.155C6.96806 12.3292 8.04333 10.7408 9.40667 9.39C10.77 8.03917 12.3585 6.96986 14.1721 6.18208C15.9857 5.39403 17.9265 5 19.9946 5C22.0688 5 24.0189 5.39361 25.845 6.18083C27.6708 6.96806 29.2592 8.03639 30.61 9.38583C31.9608 10.7353 33.0301 12.3222 33.8179 14.1467C34.606 15.9708 35 17.9201 35 19.9946C35 22.0624 34.6064 24.0039 33.8192 25.8192C33.0319 27.6344 31.9636 29.2244 30.6142 30.5892C29.2647 31.9539 27.6778 33.0301 25.8533 33.8179C24.0292 34.606 22.0799 35 20.0054 35ZM20 33.7179C23.8161 33.7179 27.0565 32.384 29.7213 29.7163C32.3857 27.0485 33.7179 23.8097 33.7179 20C33.7179 16.1839 32.3857 12.9435 29.7213 10.2788C27.0565 7.61431 23.8161 6.28208 20 6.28208C16.1903 6.28208 12.9515 7.61431 10.2838 10.2788C7.61597 12.9435 6.28208 16.1839 6.28208 20C6.28208 23.8097 7.61597 27.0485 10.2838 29.7163C12.9515 32.384 16.1903 33.7179 20 33.7179Z" fill="white"/>
</svg>
