<svg width="40" height="40" viewBox="0 0 40 40" fill="none" xmlns="http://www.w3.org/2000/svg">
<path d="M19.2724 34.1667V30.81C17.8116 30.6489 16.5756 30.1667 15.5645 29.3633C14.5534 28.5597 13.8093 27.4912 13.332 26.1579L14.6337 25.5725C15.137 26.8206 15.8216 27.7743 16.6874 28.4337C17.5533 29.0932 18.6856 29.4229 20.0845 29.4229C21.4098 29.4229 22.609 29.0849 23.682 28.4087C24.7551 27.7324 25.2916 26.6787 25.2916 25.2479C25.2916 23.9807 24.8836 22.9731 24.0674 22.225C23.2511 21.4767 21.8009 20.7649 19.717 20.0896C17.6798 19.4351 16.2076 18.6661 15.3004 17.7825C14.3929 16.8989 13.9391 15.7364 13.9391 14.295C13.9391 12.8311 14.5049 11.631 15.6366 10.6946C16.7686 9.75791 17.9805 9.2593 19.2724 9.19875V5.83333H20.6824V9.19875C21.8008 9.28708 22.774 9.5743 23.602 10.0604C24.4301 10.5465 25.1208 11.26 25.6741 12.2008L24.437 12.8633C24.0168 12.1453 23.4515 11.5708 22.7412 11.14C22.0312 10.7092 21.1377 10.4937 20.0608 10.4937C18.7661 10.4937 17.6572 10.8372 16.7341 11.5242C15.8108 12.2111 15.3491 13.1325 15.3491 14.2883C15.3491 15.3475 15.7124 16.2183 16.4391 16.9008C17.1655 17.5831 18.6498 18.2778 20.892 18.985C22.9112 19.6444 24.3843 20.4576 25.3112 21.4246C26.2384 22.3915 26.702 23.6482 26.702 25.1946C26.702 26.8049 26.1347 28.1093 24.9999 29.1079C23.8652 30.1065 22.4261 30.671 20.6824 30.8012V34.1667H19.2724Z" fill="white"/>
</svg>
